<?xml version="1.0" standalone="no"?>
<!DOCTYPE svg PUBLIC "-//W3C//DTD SVG 20010904//EN"
 "http://www.w3.org/TR/2001/REC-SVG-20010904/DTD/svg10.dtd">
<svg version="1.0" xmlns="http://www.w3.org/2000/svg"
 width="270.000000pt" height="270.000000pt" viewBox="0 0 270.000000 270.000000"
 preserveAspectRatio="xMidYMid meet">
<metadata>
Created by potrace 1.14, written by Peter Selinger 2001-2017
</metadata>
<g transform="translate(0.000000,270.000000) scale(0.100000,-0.100000)"
fill="#000000" stroke="none">
<path d="M0 2041 l0 -659 62 -1 c34 0 66 -5 72 -11 7 -7 -13 -10 -62 -10 l-72
0 0 -55 c0 -34 4 -55 11 -55 8 0 8 -4 0 -13 -14 -18 -13 -777 2 -863 7 -40 7
-114 1 -217 l-9 -157 1149 0 1148 0 -16 25 c-17 26 -13 51 6 39 7 -4 8 -2 4 4
-4 7 -18 12 -32 12 -14 0 -55 20 -92 45 -41 26 -92 50 -128 59 -90 21 -133 49
-134 84 0 10 9 8 33 -6 17 -11 77 -36 132 -55 99 -34 100 -34 165 -20 36 8 80
12 99 9 24 -4 45 1 68 15 30 19 38 19 88 9 41 -8 64 -9 87 -1 17 6 34 11 38
11 4 0 8 -37 9 -82 3 -130 8 -148 42 -148 l29 0 0 750 0 750 -24 0 c-13 0 -27
6 -29 13 -3 6 -6 -9 -6 -34 -1 -25 2 -48 5 -52 10 -10 4 -245 -11 -382 -7 -74
-14 -250 -14 -409 -1 -154 -5 -284 -10 -290 -4 -6 -11 -23 -15 -38 -5 -23 -12
-28 -36 -28 -30 0 -51 24 -43 48 3 6 0 12 -6 12 -15 0 -35 51 -54 137 -9 40
-37 114 -62 165 -28 56 -49 112 -52 143 -6 48 -16 65 -38 65 -6 0 -26 -33 -45
-72 -27 -57 -55 -94 -125 -164 -83 -84 -101 -97 -215 -153 -171 -83 -306 -107
-470 -81 -81 13 -232 55 -285 79 -133 61 -219 96 -375 154 -238 88 -375 150
-436 196 -35 27 -59 37 -75 35 -33 -6 -53 10 -55 43 0 19 -7 29 -20 32 -48 9
-57 44 -21 82 12 14 34 40 50 58 22 27 42 37 105 52 102 26 300 88 334 105 44
22 67 54 74 100 8 54 38 65 91 34 54 -32 83 -27 123 23 19 23 69 74 111 113
79 73 130 97 251 119 84 16 89 80 7 80 l-44 -1 3 41 c5 71 13 105 24 105 15 0
51 -48 69 -94 20 -49 41 -65 63 -47 22 18 20 31 -4 31 -23 0 -23 -4 -10 80 17
106 26 118 72 101 17 -6 22 -17 24 -50 1 -29 14 -62 38 -101 51 -83 46 -119
-14 -84 -32 20 -50 13 -30 -11 19 -22 85 -37 136 -29 67 10 87 45 80 142 -2
39 -3 72 -1 72 2 0 30 -28 63 -62 33 -35 63 -60 66 -57 3 2 1 34 -4 69 -12 82
-13 140 -1 140 4 0 12 -15 18 -32 6 -22 15 -32 25 -30 22 3 29 -22 24 -89 -3
-30 -2 -60 2 -66 4 -5 64 -37 133 -71 121 -58 137 -70 193 -147 12 -16 17 -17
27 -8 10 10 8 23 -11 63 -32 69 -81 110 -199 170 l-100 50 16 29 c17 29 37 34
91 25 29 -6 28 -19 -3 -46 -14 -12 -25 -25 -25 -30 0 -15 56 -8 95 12 50 26
53 25 61 -6 5 -21 11 -25 32 -21 14 3 32 -2 43 -11 26 -22 24 -42 -2 -35 -17
5 -20 2 -17 -13 2 -14 13 -20 41 -22 36 -3 50 -23 27 -37 -19 -12 -10 -53 15
-73 17 -14 25 -30 25 -51 0 -37 13 -39 56 -6 47 36 71 82 89 166 16 77 14 227
-3 238 -5 3 -12 20 -16 36 l-6 30 57 0 c55 0 57 1 65 32 7 27 13 32 39 31 29
-1 30 -3 27 -42 -3 -39 -5 -41 -35 -41 -19 0 -36 -7 -42 -17 -8 -13 -8 -16 2
-13 7 3 13 -4 13 -19 1 -18 -5 -26 -23 -30 -13 -4 -21 -11 -18 -17 5 -7 11 -6
20 1 7 6 16 7 19 2 4 -6 11 -94 19 -229 0 -15 17 -18 17 -3 0 6 11 8 25 4 l25
-6 0 506 c0 548 3 513 -47 507 -7 -1 -13 4 -13 12 0 9 9 12 30 9 28 -4 30 -2
30 27 l0 31 -1033 0 c-639 0 -1037 -4 -1043 -9 -5 -6 -25 -7 -49 -1 -22 4
-139 7 -260 7 -170 -2 -219 -5 -218 -14 2 -7 -2 -13 -7 -13 -6 0 -13 6 -15 13
-3 6 -21 13 -40 14 l-35 3 0 -659z m116 582 c-10 -10 -19 5 -10 18 6 11 8 11
12 0 2 -7 1 -15 -2 -18z m187 8 c3 -14 1 -18 -9 -14 -15 6 -18 16 -7 26 9 10
10 9 16 -12z m-143 -1 c0 -5 -7 -10 -15 -10 -8 0 -15 5 -15 10 0 6 7 10 15 10
8 0 15 -4 15 -10z m200 -10 c0 -5 -7 -7 -15 -4 -8 4 -15 8 -15 10 0 2 7 4 15
4 8 0 15 -4 15 -10z m220 0 c0 -5 -10 -10 -22 -10 -19 0 -20 2 -8 10 19 13 30
13 30 0z m793 -44 c26 -8 60 -25 77 -39 23 -20 45 -27 103 -32 73 -7 74 -7
104 24 18 17 40 31 50 32 60 3 102 -5 133 -26 19 -13 45 -26 58 -30 17 -5 22
-14 22 -38 0 -54 13 -64 52 -43 43 23 76 18 102 -17 27 -36 27 -116 2 -169
-23 -48 -43 -49 -163 -9 -140 47 -337 62 -531 41 -202 -22 -323 -59 -506 -153
-78 -40 -148 -71 -156 -69 -20 3 -70 113 -70 151 0 21 10 38 35 59 24 22 36
43 41 71 7 45 27 67 97 105 64 35 103 34 143 -5 l31 -30 64 26 c61 24 65 28
82 74 18 50 29 58 107 80 50 13 71 13 123 -3z m1282 -16 c-3 -5 -10 -10 -16
-10 -5 0 -9 5 -9 10 0 6 7 10 16 10 8 0 12 -4 9 -10z m-2082 -61 c136 -1 247
-5 247 -9 0 -4 -21 -19 -47 -32 -118 -61 -163 -91 -188 -124 -24 -31 -32 -35
-57 -30 -21 4 -28 2 -25 -7 2 -6 10 -11 16 -10 6 2 11 1 11 -1 0 -8 -51 -58
-82 -79 -48 -34 -138 -119 -138 -130 0 -6 -6 -18 -14 -26 -19 -22 -65 -138
-73 -183 -3 -21 -11 -45 -18 -55 -11 -14 -13 -3 -14 72 -1 50 -4 146 -8 215
-3 69 -6 141 -7 160 -1 33 -3 35 -33 33 -23 -1 -33 3 -33 13 0 8 -4 14 -10 14
-5 0 -10 18 -10 40 l0 40 40 0 c34 0 42 4 50 26 6 14 10 36 10 49 0 26 18 31
95 29 22 -1 151 -3 288 -5z m2112 -124 c8 -60 3 -75 -25 -75 -36 0 -50 11 -40
30 7 13 7 21 0 25 -5 3 -10 20 -10 36 0 22 6 32 23 38 35 13 45 3 52 -54z
m-25 -145 c0 -5 -5 -10 -11 -10 -5 0 -7 5 -4 10 3 6 8 10 11 10 2 0 4 -4 4
-10z m-2504 -253 c1 -23 -2 -26 -20 -21 -33 10 -41 21 -26 39 20 24 45 14 46
-18z m4 -47 c0 -5 -11 -10 -25 -10 -14 0 -25 -4 -25 -10 0 -5 -5 -10 -11 -10
-20 0 -3 24 22 31 35 10 39 10 39 -1z m-76 -98 c3 -5 -1 -9 -9 -9 -8 0 -15 4
-15 9 0 4 4 8 9 8 6 0 12 -4 15 -8z m2601 -2 c-3 -5 -10 -10 -16 -10 -5 0 -9
5 -9 10 0 6 7 10 16 10 8 0 12 -4 9 -10z m-1545 -45 c0 -8 9 -20 20 -27 12 -8
20 -24 20 -40 0 -32 -15 -36 -42 -11 -17 15 -18 15 -18 -12 0 -16 7 -36 16
-46 14 -15 12 -18 -19 -37 -33 -21 -124 -113 -185 -187 l-33 -40 4 90 c3 75 8
100 33 149 16 32 34 59 39 60 6 0 20 -19 33 -44 12 -24 29 -51 37 -59 12 -13
15 -11 25 13 6 16 14 56 19 90 9 64 28 116 43 116 4 0 8 -7 8 -15z m-1005
-207 c-3 -29 -2 -47 1 -40 9 18 21 15 27 -8 6 -22 3 -24 -35 -34 l-28 -6 1 62
c1 70 4 78 25 78 12 0 14 -10 9 -52z m922 -1493 c0 -15 -34 -31 -44 -21 -3 3
-3 12 0 21 8 19 44 20 44 0z"/>
<path d="M316 2313 c-11 -11 -6 -23 9 -23 8 0 15 4 15 9 0 13 -16 22 -24 14z"/>
<path d="M405 2302 c-11 -11 -4 -20 12 -18 22 3 29 23 8 23 -8 0 -17 -3 -20
-5z"/>
<path d="M296 2161 c-14 -26 -14 -30 1 -35 21 -8 31 8 25 40 -6 31 -8 30 -26
-5z"/>
<path d="M1978 1449 c-27 -17 -48 -38 -48 -45 0 -19 15 -18 48 4 25 16 24 13
-9 -28 -53 -66 -60 -82 -65 -173 -7 -116 9 -173 61 -209 43 -29 159 -78 188
-78 9 0 17 7 17 15 0 8 -7 15 -16 15 -9 0 -14 3 -12 8 2 4 15 30 29 57 27 51
43 109 55 200 4 28 9 44 11 38 3 -7 12 -13 20 -13 19 0 12 34 -25 110 -14 30
-25 65 -24 77 4 32 -43 53 -120 53 -54 0 -70 -5 -110 -31z m88 -94 c10 -16 14
-34 10 -50 -15 -60 -73 -30 -60 30 11 54 24 59 50 20z m-109 -192 c-3 -10 -5
-4 -5 12 0 17 2 24 5 18 2 -7 2 -21 0 -30z m43 -106 c0 -5 -7 -4 -15 3 -8 7
-15 20 -15 29 1 13 3 13 15 -3 8 -11 15 -24 15 -29z m150 -3 c0 -8 -4 -14 -9
-14 -11 0 -22 26 -14 34 9 9 23 -3 23 -20z m-67 -45 c-6 -6 -17 -8 -24 -3 -9
5 -8 9 7 14 23 9 31 3 17 -11z"/>
<path d="M1214 1356 c-71 -16 -131 -45 -158 -75 -19 -21 -19 -21 0 -21 11 0
30 7 42 16 45 31 134 54 213 54 72 0 104 10 79 25 -22 14 -118 14 -176 1z"/>
<path d="M1129 1280 c-48 -25 -146 -115 -164 -150 -20 -39 -30 -106 -16 -114
6 -4 16 8 25 27 21 52 32 52 45 1 23 -91 57 -142 123 -187 35 -23 36 -25 16
-30 -21 -6 -21 -7 -3 -27 23 -25 50 -25 128 1 74 25 118 64 148 133 18 43 21
63 16 131 -3 44 -12 96 -20 115 -16 37 -67 90 -104 109 -36 18 -153 13 -194
-9z m69 -72 c-3 -26 -42 -36 -68 -18 -13 9 -12 12 4 25 11 8 31 15 44 15 19 0
23 -5 20 -22z m-45 -241 c15 -18 39 -31 75 -39 38 -10 52 -17 52 -30 0 -33
-58 -22 -115 21 -57 43 -94 107 -103 176 -4 38 -3 37 32 -30 20 -39 47 -83 59
-98z m214 -17 c2 -8 -2 -22 -7 -30 -9 -13 -11 -13 -20 0 -16 25 -12 52 7 48
10 -2 19 -10 20 -18z"/>
<path d="M184 966 c-4 -11 -2 -21 7 -27 31 -19 38 -5 15 27 -14 18 -15 18 -22
0z"/>
<path d="M245 890 c-8 -14 3 -30 21 -30 18 0 18 8 0 26 -9 9 -17 10 -21 4z"/>
<path d="M1846 635 c-18 -27 -45 -32 -64 -13 -6 6 -14 9 -18 6 -3 -4 6 -14 19
-23 29 -19 59 -9 78 26 16 30 4 34 -15 4z"/>
<path d="M2290 149 c0 -5 5 -7 10 -4 6 3 10 8 10 11 0 2 -4 4 -10 4 -5 0 -10
-5 -10 -11z"/>
</g>
</svg>
